<?xml version="1.0" encoding="utf-8"?>
<!-- Generator: Adobe Illustrator 13.0.2, SVG Export Plug-In . SVG Version: 6.00 Build 14948)  -->
<!DOCTYPE svg PUBLIC "-//W3C//DTD SVG 1.1//EN" "http://www.w3.org/Graphics/SVG/1.1/DTD/svg11.dtd">
<svg version="1.1" id="Layer_1" xmlns="http://www.w3.org/2000/svg" xmlns:xlink="http://www.w3.org/1999/xlink" x="0px" y="0px"
	 width="43.617px" height="54.44px" viewBox="0 0 43.617 54.44" enable-background="new 0 0 43.617 54.44" xml:space="preserve">
<g>
	<g>
		<g>
			<g>
				<path fill="#4A4B4E" d="M21.034,54.44H2.433c-0.609-0.002-1.177-0.094-1.675-0.449l0,0c-0.51-0.352-0.777-1.002-0.757-1.566l0,0
					c0-0.023-0.002-0.08,0.01-0.186l0,0l0,0c0.096-1.271,1.076-2.693,2.927-3.354l0,0l0.067-0.023l0.072-0.012
					c1.782-0.281,17.888-0.432,17.948-0.439l0,0l0,0c4.39-0.279,7.484-2.004,9.66-5.395l0,0c2.174-3.412,3.335-8.633,3.33-15.735
					l0,0c0.005,0-0.003-0.018,0.003-0.109l0,0c-0.012-7.098-1.18-12.402-3.359-15.9l0,0c-2.196-3.496-5.312-5.295-9.657-5.561l0,0
					c-0.002,0-4.1,0.031-8.379,0.031l0,0C8.347,5.736,4.08,5.723,3.08,5.573l0,0L3.002,5.559l-0.065-0.02
					C1.036,4.862,0.044,3.391,0.004,2.082l0,0C-0.015,1.498,0.253,0.836,0.774,0.47l0,0C1.285,0.104,1.875,0.003,2.51,0l0,0h18.483
					c7.409-0.012,13.173,2.277,16.987,6.91l0,0c3.812,4.628,5.633,11.426,5.637,20.309l0,0c-0.004,8.885-1.821,15.684-5.627,20.313
					l0,0c-3.797,4.623-9.534,6.908-16.902,6.908l0,0C21.07,54.44,21.052,54.44,21.034,54.44L21.034,54.44z"/>
			</g>
		</g>
	</g>
</g>
</svg>
