<svg xmlns="http://www.w3.org/2000/svg" xmlns:xlink="http://www.w3.org/1999/xlink" version="1.1" x="0px" y="0px" width="155.117px" height="36.295px" viewBox="0 0 155.117 36.295" enable-background="new 0 0 155.117 36.295" xml:space="preserve"><style>.style0{fill:	#4C4C4F;}</style><defs></defs><path d="M17.615 0C7.887 0 0 7.9 0 17.615c0 9.7 7.9 17.6 17.6 17.6 c9.728 0 17.615-7.888 17.615-17.614C35.23 7.9 27.3 0 17.6 0z M30.589 22.896l-13.443 0.006L13.73 18.51H8.784v4.39H4.72 v-7.507h6.494l-1.025-1.025c0 0-0.12-0.187-0.211-0.212c-0.058-0.015-0.398 0-0.398 0H4.741v-2.826h6.89 c0 0 0.422-0.041 1 0.221c0.479 0.2 0.8 0.6 0.8 0.556l3.027 3.534v0.96l0.827 0.005l2.684 3.13l5.424-0.019 c0 0 0.293-0.007 0.372-0.177c0.08-0.175-0.125-0.408-0.125-0.408c-0.941-1.092-2.874-3.336-2.874-3.336 s-0.168-0.194-0.373-0.194c-0.22 0-0.371 0.192-0.371 0.192l-2.354 2.502l-2.655-3.044c0 0 2.634-2.863 2.956-3.148 c0.394-0.349 1.045-0.716 2.739-0.716c1.166 0 1.9 0.2 2.7 0.751c0.421 0.3 6.4 7.8 6.4 7.8 s0.377 0.4 0.2 0.918C31.763 21.3 30.6 22.9 30.6 22.896z" class="style0"/><path d="M57.982 0.019c-9.729 0-17.615 7.886-17.615 17.615c0 9.7 7.9 17.6 17.6 17.6 s17.615-7.889 17.615-17.615C75.598 7.9 67.7 0 58 0.019z M66.543 13.563c0.008 0.2 0 0.4 0 0.5 c0 5.581-4.246 12.012-12.01 12.012c-2.384 0-4.603-0.698-6.471-1.896c0.33 0 0.7 0.1 1 0.1 c1.978 0 3.798-0.674 5.243-1.807c-1.847-0.035-3.406-1.254-3.943-2.932c0.257 0 0.5 0.1 0.8 0.1 c0.385 0 0.758-0.054 1.113-0.147c-1.932-0.389-3.386-2.095-3.386-4.14V15.28c0.569 0.3 1.2 0.5 1.9 0.5 c-1.132-0.756-1.878-2.049-1.878-3.513c0-0.774 0.208-1.499 0.572-2.122c2.081 2.6 5.2 4.2 8.7 4.4 c-0.072-0.31-0.109-0.631-0.109-0.962c0-2.33 1.89-4.222 4.221-4.222c1.213 0 2.3 0.5 3.1 1.3 c0.962-0.189 1.866-0.542 2.682-1.024c-0.317 0.986-0.985 1.813-1.857 2.335c0.854-0.103 1.667-0.328 2.425-0.664 C68.083 12.2 67.4 13 66.5 13.563z" class="style0"/><path d="M96.919 0.037c-9.728 0-17.612 7.887-17.612 17.615s7.886 17.6 17.6 17.6 c9.729 0 17.615-7.888 17.615-17.615C114.535 7.9 106.6 0 96.9 0.037z M104.341 17.179l-0.027 0.1 c-0.046 0.158-0.1 0.31-0.161 0.456l-0.04 0.095c-0.64 1.449-2.027 2.383-4.918 2.67c0.497 0.3 1 1 1 2.18v3.09 c0 0 0.1 0.8 0.8 1.019c0 0 0.4 0.286-0.032 0.444c0 0-1.941 0.16-1.941-1.434V23.44c0 0 0.077-0.869-0.381-1.226v3.836 c0 0 0 0.9 0.5 1.274c0 0 0.3 0.572-0.384 0.414c0 0-1.337-0.191-1.399-1.752l-0.031-3.916H96.98l-0.031 3.9 c-0.062 1.561-1.4 1.752-1.4 1.752c-0.699 0.158-0.381-0.414-0.381-0.414c0.478-0.352 0.508-1.274 0.508-1.274v-3.87 c-0.457 0.325-0.381 1.26-0.381 1.26v2.355c0 1.594-1.941 1.434-1.941 1.434c-0.447-0.158-0.032-0.444-0.032-0.444 c0.701-0.257 0.765-1.019 0.765-1.019v-2.162c-3.008 0.672-3.631-1.42-3.631-1.42c-0.479-1.229-1.17-1.555-1.17-1.555 c-0.965-0.66 0.07-0.645 0.07-0.645c1.066 0.1 1.6 1.1 1.6 1.1c0.996 1.7 2.7 1.1 3.2 0.8 c0.158-0.744 0.551-1.184 0.937-1.44c-2.712-0.293-4.235-1.224-5.009-2.664l-0.049-0.094c-0.076-0.149-0.145-0.305-0.203-0.464 L89.8 17.175c-0.275-0.771-0.389-1.659-0.389-2.646c0-1.312 0.475-2.379 1.248-3.216c-0.123-0.303-0.531-1.523 0.129-3.175 c0 0 1.01-0.319 3.3 1.243c0.959-0.264 1.99-0.393 3.01-0.393c0.925 0 1.9 0.1 2.7 0.324c2.22-1.485 3.2-1.175 3.2-1.175 c0.557 1.4 0.4 2.5 0.2 2.967c0.866 0.9 1.4 2 1.4 3.424C104.621 15.5 104.6 16.4 104.3 17.179z" class="style0"/><path d="M137.564 0.047c-9.729 0-17.615 7.887-17.615 17.616c0 9.7 7.9 17.6 17.6 17.6 c9.729 0 17.615-7.889 17.615-17.616C155.179 7.9 147.3 0 137.6 0.047z M132.683 25.7 c-1.369 0-2.479-1.111-2.479-2.48s1.11-2.48 2.479-2.48s2.48 1.1 2.5 2.48C135.165 24.6 134.1 25.7 132.7 25.663z M138.906 25.679c0-2.34-0.903-4.539-2.551-6.191c-1.642-1.651-3.824-2.56-6.148-2.56v-3.581c6.771 0 12.3 5.5 12.3 12.3 H138.906z M145.232 25.685c0-8.329-6.736-15.104-15.021-15.104V6.999c10.259 0 18.6 8.4 18.6 18.686H145.232 L145.232 25.685z" class="style0"/></svg>