<?xml version="1.0" encoding="utf-8"?>
<!-- Generator: Adobe Illustrator 13.0.2, SVG Export Plug-In  -->
<!DOCTYPE svg PUBLIC "-//W3C//DTD SVG 1.1//EN" "http://www.w3.org/Graphics/SVG/1.1/DTD/svg11.dtd" [
	<!ENTITY ns_flows "http://ns.adobe.com/Flows/1.0/">
]>
<svg version="1.1"
	 xmlns="http://www.w3.org/2000/svg" xmlns:xlink="http://www.w3.org/1999/xlink" xmlns:a="http://ns.adobe.com/AdobeSVGViewerExtensions/3.0/"
	 x="0px" y="0px" width="155px" height="36px" viewBox="0 0 155 36" enable-background="new 0 0 155 36" xml:space="preserve">
<defs>
</defs>
<path fill="#4C4C4F" d="M17.6,0C7.9,0,0,7.9,0,17.6c0,9.7,7.9,17.6,17.6,17.6c9.7,0,17.6-7.9,17.6-17.6C35.2,7.9,27.3,0,17.6,0z
	 M30.6,22.9l-13.4,0l-3.4-4.4H8.8v4.4H4.7v-7.5h6.5l-1-1c0,0-0.1-0.2-0.2-0.2c-0.1,0-0.4,0-0.4,0H4.7v-2.8h6.9c0,0,0.4,0,1,0.2
	c0.5,0.2,0.8,0.6,0.8,0.6l3,3.5v1l0.8,0l2.7,3.1l5.4,0c0,0,0.3,0,0.4-0.2c0.1-0.2-0.1-0.4-0.1-0.4c-0.9-1.1-2.9-3.3-2.9-3.3
	s-0.2-0.2-0.4-0.2c-0.2,0-0.4,0.2-0.4,0.2l-2.4,2.5l-2.7-3c0,0,2.6-2.9,3-3.1c0.4-0.3,1-0.7,2.7-0.7c1.2,0,1.9,0.2,2.7,0.8
	c0.4,0.3,6.4,7.8,6.4,7.8s0.4,0.4,0.2,0.9C31.8,21.3,30.6,22.9,30.6,22.9z"/>
<path fill="#4C4C4F" d="M58,0c-9.7,0-17.6,7.9-17.6,17.6S48.3,35.2,58,35.2s17.6-7.9,17.6-17.6C75.6,7.9,67.7,0,58,0z M66.5,13.6
	c0,0.2,0,0.4,0,0.5c0,5.6-4.2,12-12,12c-2.4,0-4.6-0.7-6.5-1.9c0.3,0,0.7,0.1,1,0.1c2,0,3.8-0.7,5.2-1.8c-1.8,0-3.4-1.3-3.9-2.9
	c0.3,0,0.5,0.1,0.8,0.1c0.4,0,0.8-0.1,1.1-0.1c-1.9-0.4-3.4-2.1-3.4-4.1v-0.1c0.6,0.3,1.2,0.5,1.9,0.5c-1.1-0.8-1.9-2-1.9-3.5
	c0-0.8,0.2-1.5,0.6-2.1c2.1,2.6,5.2,4.2,8.7,4.4c-0.1-0.3-0.1-0.6-0.1-1c0-2.3,1.9-4.2,4.2-4.2c1.2,0,2.3,0.5,3.1,1.3
	c1-0.2,1.9-0.5,2.7-1c-0.3,1-1,1.8-1.9,2.3c0.9-0.1,1.7-0.3,2.4-0.7C68.1,12.2,67.4,13,66.5,13.6z"/>
<path fill="#4C4C4F" d="M96.9,0c-9.7,0-17.6,7.9-17.6,17.6s7.9,17.6,17.6,17.6c9.7,0,17.6-7.9,17.6-17.6C114.5,7.9,106.6,0,96.9,0z
	 M104.3,17.2L104.3,17.2c-0.1,0.3-0.1,0.4-0.2,0.6l0,0.1c-0.6,1.4-2,2.4-4.9,2.7c0.5,0.3,1,1,1,2.2v3.1c0,0,0.1,0.8,0.8,1
	c0,0,0.4,0.3,0,0.4c0,0-1.9,0.2-1.9-1.4v-2.4c0,0,0.1-0.9-0.4-1.2v3.8c0,0,0,0.9,0.5,1.3c0,0,0.3,0.6-0.4,0.4c0,0-1.3-0.2-1.4-1.8
	l0-3.9H97l0,3.9c-0.1,1.6-1.4,1.8-1.4,1.8c-0.7,0.2-0.4-0.4-0.4-0.4c0.5-0.4,0.5-1.3,0.5-1.3v-3.9c-0.5,0.3-0.4,1.3-0.4,1.3v2.4
	c0,1.6-1.9,1.4-1.9,1.4c-0.4-0.2,0-0.4,0-0.4c0.7-0.3,0.8-1,0.8-1v-2.2c-3,0.7-3.6-1.4-3.6-1.4c-0.5-1.2-1.2-1.6-1.2-1.6
	c-1-0.7,0.1-0.6,0.1-0.6c1.1,0.1,1.6,1.1,1.6,1.1c1,1.7,2.7,1.1,3.2,0.8c0.2-0.7,0.6-1.2,0.9-1.4c-2.7-0.3-4.2-1.2-5-2.7l0-0.1
	c-0.1-0.1-0.1-0.3-0.2-0.5l0-0.1c-0.3-0.8-0.4-1.7-0.4-2.6c0-1.3,0.5-2.4,1.2-3.2c-0.1-0.3-0.5-1.5,0.1-3.2c0,0,1-0.3,3.3,1.2
	c1-0.3,2-0.4,3-0.4C98,9,99,9.1,99.8,9.3c2.2-1.5,3.2-1.2,3.2-1.2c0.6,1.4,0.4,2.5,0.2,3c0.9,0.9,1.4,2,1.4,3.4
	C104.6,15.5,104.6,16.4,104.3,17.2z"/>
<path fill="#4C4C4F" d="M137.5,1.1c-9.7,0-17.6,7.9-17.6,17.6c0,9.7,7.9,17.6,17.6,17.6c9.7,0,17.6-7.9,17.6-17.6
	C155.1,9,147.2,1.1,137.5,1.1z M132.6,26.7c-1.4,0-2.5-1.1-2.5-2.5c0-1.4,1.1-2.5,2.5-2.5s2.5,1.1,2.5,2.5
	C135.1,25.6,134,26.7,132.6,26.7z M138.8,26.7c0-2.3-0.9-4.5-2.6-6.2c-1.6-1.7-3.8-2.6-6.1-2.6v-3.6c6.8,0,12.3,5.5,12.3,12.3H138.8
	z M145.2,26.7c0-8.3-6.7-15.1-15-15.1V8c10.3,0,18.6,8.4,18.6,18.7L145.2,26.7L145.2,26.7z"/>
</svg>
